<?xml version="1.0" encoding="utf-8"?>
<!-- Generator: Adobe Illustrator 25.4.1, SVG Export Plug-In . SVG Version: 6.00 Build 0)  -->
<svg version="1.1" id="Layer_1" xmlns="http://www.w3.org/2000/svg" xmlns:xlink="http://www.w3.org/1999/xlink" x="0px" y="0px"
	 viewBox="0 0 85.04 56.69" enable-background="new 0 0 85.04 56.69" xml:space="preserve">
<rect y="0" fill="#FFFFFF" width="85.04" height="56.69"/>
<rect x="34.02" y="0" fill="#B12332" width="51.02" height="4.36"/>
<rect x="34.02" y="8.72" fill="#B12332" width="51.02" height="4.36"/>
<rect x="34.02" y="17.44" fill="#B12332" width="51.02" height="4.36"/>
<rect x="34.02" y="26.17" fill="#B12332" width="51.02" height="4.36"/>
<rect y="34.89" fill="#B12332" width="85.04" height="4.36"/>
<rect y="43.61" fill="#B12332" width="85.04" height="4.36"/>
<rect y="52.33" fill="#B12332" width="85.04" height="4.36"/>
<rect y="0" fill="#002664" width="34.02" height="30.53"/>
<circle fill="#FFFFFF" cx="2.84" cy="3.46" r="1.06"/>
<circle fill="#FFFFFF" cx="2.84" cy="11.15" r="1.06"/>
<circle fill="#FFFFFF" cx="2.84" cy="18.78" r="1.06"/>
<circle fill="#FFFFFF" cx="2.84" cy="26.4" r="1.06"/>
<circle fill="#FFFFFF" cx="6.39" cy="7.27" r="1.06"/>
<circle fill="#FFFFFF" cx="6.39" cy="14.97" r="1.06"/>
<circle fill="#FFFFFF" cx="6.39" cy="22.59" r="1.06"/>
<circle fill="#FFFFFF" cx="9.93" cy="3.4" r="1.06"/>
<circle fill="#FFFFFF" cx="9.93" cy="11.08" r="1.06"/>
<circle fill="#FFFFFF" cx="9.93" cy="18.72" r="1.06"/>
<circle fill="#FFFFFF" cx="9.93" cy="26.34" r="1.06"/>
<circle fill="#FFFFFF" cx="13.47" cy="7.27" r="1.06"/>
<circle fill="#FFFFFF" cx="13.47" cy="14.97" r="1.06"/>
<circle fill="#FFFFFF" cx="13.47" cy="22.59" r="1.06"/>
<circle fill="#FFFFFF" cx="17.01" cy="3.4" r="1.06"/>
<circle fill="#FFFFFF" cx="17.01" cy="11.08" r="1.06"/>
<circle fill="#FFFFFF" cx="17.01" cy="18.72" r="1.06"/>
<circle fill="#FFFFFF" cx="17.01" cy="26.34" r="1.06"/>
<circle fill="#FFFFFF" cx="20.56" cy="7.27" r="1.06"/>
<circle fill="#FFFFFF" cx="20.56" cy="14.97" r="1.06"/>
<circle fill="#FFFFFF" cx="20.56" cy="22.59" r="1.06"/>
<circle fill="#FFFFFF" cx="24.09" cy="3.4" r="1.06"/>
<circle fill="#FFFFFF" cx="24.09" cy="11.08" r="1.06"/>
<circle fill="#FFFFFF" cx="24.09" cy="18.72" r="1.06"/>
<circle fill="#FFFFFF" cx="24.09" cy="26.34" r="1.06"/>
<circle fill="#FFFFFF" cx="27.64" cy="7.27" r="1.06"/>
<circle fill="#FFFFFF" cx="27.64" cy="14.97" r="1.06"/>
<circle fill="#FFFFFF" cx="27.64" cy="22.59" r="1.06"/>
<circle fill="#FFFFFF" cx="31.18" cy="3.4" r="1.06"/>
<circle fill="#FFFFFF" cx="31.18" cy="11.08" r="1.06"/>
<circle fill="#FFFFFF" cx="31.18" cy="18.72" r="1.06"/>
<circle fill="#FFFFFF" cx="31.18" cy="26.34" r="1.06"/>
</svg>
